<?xml version="1.0" encoding="UTF-8" standalone="no"?>
<svg
   fill="#000000"
   viewBox="0 0 24 24"
   width="48px"
   height="48px"
   version="1.1"
   id="svg4"
   sodipodi:docname="male-user.svg"
   inkscape:version="1.1.2 (b8e25be833, 2022-02-05)"
   xmlns:inkscape="http://www.inkscape.org/namespaces/inkscape"
   xmlns:sodipodi="http://sodipodi.sourceforge.net/DTD/sodipodi-0.dtd"
   xmlns="http://www.w3.org/2000/svg"
   xmlns:svg="http://www.w3.org/2000/svg">
  <defs
     id="defs8" />
  <sodipodi:namedview
     id="namedview6"
     pagecolor="#ffffff"
     bordercolor="#999999"
     borderopacity="1"
     inkscape:pageshadow="0"
     inkscape:pageopacity="0"
     inkscape:pagecheckerboard="0"
     showgrid="false"
     inkscape:zoom="14.979167"
     inkscape:cx="24"
     inkscape:cy="24"
     inkscape:window-width="1920"
     inkscape:window-height="1051"
     inkscape:window-x="-9"
     inkscape:window-y="-9"
     inkscape:window-maximized="1"
     inkscape:current-layer="svg4" />
  <path
     d="M 12 2 C 6.477 2 2 6.477 2 12 C 2 17.523 6.477 22 12 22 C 17.523 22 22 17.523 22 12 C 22 6.477 17.523 2 12 2 z M 12 4 C 16.418 4 20 7.582 20 12 C 20 13.597292 19.525404 15.081108 18.71875 16.330078 L 17.949219 15.734375 C 16.397219 14.537375 13.537 14 12 14 C 10.463 14 7.6017813 14.537375 6.0507812 15.734375 L 5.28125 16.332031 C 4.4740429 15.082774 4 13.597888 4 12 C 4 7.582 7.582 4 12 4 z M 12 5.75 C 10.208 5.75 8.75 7.208 8.75 9 C 8.75 10.792 10.208 12.25 12 12.25 C 13.792 12.25 15.25 10.792 15.25 9 C 15.25 7.208 13.792 5.75 12 5.75 z M 12 7.75 C 12.689 7.75 13.25 8.311 13.25 9 C 13.25 9.689 12.689 10.25 12 10.25 C 11.311 10.25 10.75 9.689 10.75 9 C 10.75 8.311 11.311 7.75 12 7.75 z M 12 16 C 15.100714 16 16.768095 17.168477 17.548828 17.753906 C 16.109984 19.141834 14.156852 20 12 20 C 9.843148 20 7.8900164 19.141834 6.4511719 17.753906 C 7.231905 17.168477 8.899286 16 12 16 z M 6.0546875 17.339844 C 6.1756559 17.473131 6.297271 17.605851 6.4257812 17.730469 C 6.2971141 17.605286 6.1747276 17.473381 6.0546875 17.339844 z M 17.912109 17.375 C 17.802435 17.495543 17.692936 17.616825 17.576172 17.730469 C 17.692621 17.617521 17.801457 17.494978 17.912109 17.375 z"
     id="path2"
     style="fill:#212529;fill-opacity:1" />
</svg>
